<svg width="24" height="24" viewBox="0 0 24 24" fill="none" xmlns="http://www.w3.org/2000/svg">
<g clip-path="url(#clip0_19_218)">
<path d="M9.69385 20.251L4.21429 4.94629" stroke="white" stroke-miterlimit="10" stroke-linecap="round" stroke-linejoin="round"/>
<path d="M4.60126 6.02697C4.60126 6.02697 6.72922 3.71973 10.4257 3.71973C12.6757 3.71973 13.7039 5.18601 15.5607 5.18601C17.4165 5.18601 19.1993 3.71973 19.1993 3.71973V13.2493C19.1993 13.2493 17.859 13.9826 16.2667 13.9826C14.6751 13.9826 14.0257 13.2493 11.8686 13.2493C9.8227 13.2493 7.89958 15.235 7.89958 15.235L4.60126 6.02697Z" stroke="white" stroke-miterlimit="10" stroke-linecap="round" stroke-linejoin="round"/>
<path d="M4.60126 6.02719C4.60126 6.02719 5.70538 4.85791 7.19578 4.37695L8.33482 7.30159C8.33482 7.30159 6.86386 7.83079 5.6629 8.95939L4.63906 6.13519" fill="white"/>
<path d="M8.33484 7.30199L9.56316 10.4552C9.56316 10.4552 10.529 10.1118 11.194 10.1118C11.8589 10.1118 12.518 10.2094 12.518 10.2094L11.6263 6.85595C11.6263 6.85595 11.3743 6.82031 11.0636 6.82031C9.57504 6.82031 8.33484 7.30199 8.33484 7.30199Z" fill="white"/>
<path d="M6.85919 12.2796L7.89959 15.2352C7.89959 15.2352 9.33851 13.8556 10.709 13.4676L9.56351 10.4551C8.24375 10.9634 6.85919 12.2796 6.85919 12.2796Z" fill="white"/>
<path d="M10.8033 3.75977L11.6267 6.85505C12.2927 6.85505 14.1445 7.76261 14.1445 7.76261L13.4144 4.56617C12.9957 4.40957 11.8995 3.81161 10.8033 3.75977Z" fill="white"/>
<path d="M12.5181 10.209L13.3659 13.3953C13.7928 13.3953 15.0168 13.917 15.5493 13.917L14.8336 10.7843C14.1445 10.605 13.0293 10.2806 12.5181 10.209Z" fill="white"/>
<path d="M14.1445 7.7627L14.8339 10.7838C14.8339 10.7838 15.5237 10.9113 15.9971 10.9113C16.4701 10.9113 17.0602 10.804 17.0602 10.804L16.8363 8.03774C16.8363 8.03774 16.3794 8.17958 15.8257 8.17958C14.961 8.17958 14.1445 7.7627 14.1445 7.7627Z" fill="white"/>
<path d="M16.5943 5.04129L16.8366 8.03757C16.8366 8.03757 17.963 7.75461 19.2 6.81933L19.1993 3.71973C17.7791 4.80765 16.5943 5.04129 16.5943 5.04129Z" fill="white"/>
<path d="M17.0605 10.8045C17.0605 10.8045 18.1456 10.6032 19.1993 9.99121V13.2496C18.0772 13.7881 17.3053 13.8857 17.3053 13.8857L17.0605 10.8045Z" fill="white"/>
</g>
<defs>
<clipPath id="clip0_19_218">
<rect width="18" height="18" fill="white" transform="translate(3 3)"/>
</clipPath>
</defs>
</svg>
