<svg width="390" height="501" viewBox="0 0 390 501" fill="none" xmlns="http://www.w3.org/2000/svg">
<g clip-path="url(#clip0_364_1702)">
<path d="M116.802 71.1954C118.697 70.7926 120 73.0502 118.704 74.49L111.551 82.4343C110.971 83.0782 110.872 84.0222 111.305 84.7726L116.65 94.0306C117.619 95.7085 115.874 97.6457 114.104 96.8577L104.338 92.5096C103.547 92.1572 102.618 92.3545 102.039 92.9984L94.8855 100.943C93.5891 102.383 91.2077 101.322 91.4102 99.3954L92.5276 88.7638C92.6182 87.9021 92.1436 87.0801 91.352 86.7277L81.5861 82.3796C79.8161 81.5915 80.0886 78.999 81.9837 78.5962L92.4403 76.3736C93.2878 76.1934 93.9229 75.488 94.0135 74.6263L95.1309 63.9947C95.3335 62.0679 97.8833 61.5259 98.852 63.2038L104.197 72.4617C104.63 73.2121 105.497 73.5982 106.345 73.418L116.802 71.1954Z" fill="#FAC809" fill-opacity="0.2"/>
<path d="M116.802 455.195C118.697 454.792 120 457.05 118.704 458.489L111.551 466.434C110.971 467.078 110.872 468.022 111.305 468.772L116.65 478.03C117.619 479.708 115.874 481.645 114.104 480.857L104.338 476.509C103.547 476.157 102.618 476.354 102.039 476.998L94.8855 484.942C93.5891 486.382 91.2077 485.322 91.4102 483.395L92.5276 472.763C92.6182 471.902 92.1436 471.08 91.352 470.727L81.5861 466.379C79.8161 465.591 80.0886 462.999 81.9837 462.596L92.4403 460.373C93.2878 460.193 93.9229 459.488 94.0135 458.626L95.1309 447.994C95.3335 446.067 97.8833 445.525 98.852 447.203L104.197 456.461C104.63 457.212 105.497 457.598 106.345 457.418L116.802 455.195Z" fill="#FAC809" fill-opacity="0.2"/>
<path d="M242.613 68.236C244.508 67.8331 245.812 70.0907 244.515 71.5305L237.362 79.4749C236.782 80.1188 236.683 81.0628 237.116 81.8131L242.461 91.0711C243.43 92.749 241.686 94.6862 239.916 93.8982L230.15 89.5501C229.358 89.1977 228.43 89.395 227.85 90.0389L220.697 97.9833C219.401 99.4231 217.019 98.3628 217.222 96.436L218.339 85.8043C218.43 84.9426 217.955 84.1206 217.164 83.7682L207.398 79.4201C205.628 78.6321 205.9 76.0395 207.795 75.6367L218.252 73.4141C219.099 73.234 219.734 72.5286 219.825 71.6669L220.942 61.0352C221.145 59.1084 223.695 58.5664 224.664 60.2443L230.009 69.5023C230.442 70.2526 231.309 70.6387 232.157 70.4586L242.613 68.236Z" fill="#FAC809" fill-opacity="0.2"/>
<path d="M242.613 452.236C244.508 451.833 245.812 454.091 244.515 455.531L237.362 463.475C236.782 464.119 236.683 465.063 237.116 465.813L242.461 475.071C243.43 476.749 241.686 478.686 239.916 477.898L230.15 473.55C229.358 473.198 228.43 473.395 227.85 474.039L220.697 481.983C219.401 483.423 217.019 482.363 217.222 480.436L218.339 469.804C218.43 468.943 217.955 468.121 217.164 467.768L207.398 463.42C205.628 462.632 205.9 460.04 207.795 459.637L218.252 457.414C219.099 457.234 219.734 456.529 219.825 455.667L220.942 445.035C221.145 443.108 223.695 442.566 224.664 444.244L230.009 453.502C230.442 454.253 231.309 454.639 232.157 454.459L242.613 452.236Z" fill="#FAC809" fill-opacity="0.2"/>
<path d="M369.907 71.1954C371.802 70.7926 373.106 73.0502 371.809 74.49L364.656 82.4343C364.076 83.0782 363.977 84.0222 364.41 84.7726L369.755 94.0306C370.724 95.7085 368.98 97.6457 367.21 96.8577L357.444 92.5096C356.652 92.1572 355.724 92.3545 355.144 92.9984L347.991 100.943C346.695 102.383 344.313 101.322 344.516 99.3954L345.633 88.7638C345.724 87.9021 345.249 87.0801 344.458 86.7277L334.692 82.3796C332.922 81.5915 333.194 78.999 335.089 78.5962L345.546 76.3736C346.393 76.1934 347.028 75.488 347.119 74.6263L348.236 63.9947C348.439 62.0679 350.989 61.5259 351.958 63.2038L357.303 72.4617C357.736 73.2121 358.603 73.5982 359.45 73.418L369.907 71.1954Z" fill="#FAC809" fill-opacity="0.2"/>
<path d="M369.907 455.195C371.802 454.792 373.106 457.05 371.809 458.489L364.656 466.434C364.076 467.078 363.977 468.022 364.41 468.772L369.755 478.03C370.724 479.708 368.98 481.645 367.21 480.857L357.444 476.509C356.652 476.157 355.724 476.354 355.144 476.998L347.991 484.942C346.695 486.382 344.313 485.322 344.516 483.395L345.633 472.763C345.724 471.902 345.249 471.08 344.458 470.727L334.692 466.379C332.922 465.591 333.194 462.999 335.089 462.596L345.546 460.373C346.393 460.193 347.028 459.488 347.119 458.626L348.236 447.994C348.439 446.067 350.989 445.525 351.958 447.203L357.303 456.461C357.736 457.212 358.603 457.598 359.45 457.418L369.907 455.195Z" fill="#FAC809" fill-opacity="0.2"/>
<path d="M180.449 156.303C182.344 155.901 183.648 158.158 182.351 159.598L175.198 167.542C174.618 168.186 174.519 169.13 174.952 169.881L180.297 179.138C181.266 180.816 179.522 182.754 177.752 181.966L167.986 177.617C167.194 177.265 166.266 177.462 165.686 178.106L158.533 186.051C157.237 187.49 154.855 186.43 155.058 184.503L156.175 173.872C156.266 173.01 155.791 172.188 154.999 171.836L145.234 167.487C143.464 166.699 143.736 164.107 145.631 163.704L156.088 161.481C156.935 161.301 157.57 160.596 157.661 159.734L158.778 149.103C158.981 147.176 161.531 146.634 162.5 148.312L167.845 157.57C168.278 158.32 169.145 158.706 169.992 158.526L180.449 156.303Z" fill="#FAC809" fill-opacity="0.2"/>
<path d="M246.314 199.967C248.209 199.565 249.513 201.822 248.216 203.262L241.063 211.206C240.483 211.85 240.384 212.794 240.818 213.545L246.163 222.803C247.131 224.48 245.387 226.418 243.617 225.63L233.851 221.282C233.06 220.929 232.131 221.126 231.551 221.77L224.398 229.715C223.102 231.155 220.72 230.094 220.923 228.167L222.04 217.536C222.131 216.674 221.656 215.852 220.865 215.5L211.099 211.152C209.329 210.364 209.601 207.771 211.496 207.368L221.953 205.146C222.801 204.965 223.436 204.26 223.526 203.398L224.644 192.767C224.846 190.84 227.396 190.298 228.365 191.976L233.71 201.234C234.143 201.984 235.01 202.37 235.858 202.19L246.314 199.967Z" fill="#FAC809" fill-opacity="0.2"/>
<path d="M116.802 326.52C118.697 326.117 120 328.375 118.704 329.815L111.551 337.759C110.971 338.403 110.872 339.347 111.305 340.097L116.65 349.355C117.619 351.033 115.874 352.97 114.104 352.182L104.338 347.834C103.547 347.482 102.618 347.679 102.039 348.323L94.8855 356.267C93.5891 357.707 91.2077 356.647 91.4102 354.72L92.5276 344.089C92.6182 343.227 92.1436 342.405 91.352 342.052L81.5861 337.704C79.8161 336.916 80.0886 334.324 81.9837 333.921L92.4403 331.698C93.2878 331.518 93.9229 330.813 94.0135 329.951L95.1309 319.319C95.3335 317.393 97.8833 316.851 98.852 318.528L104.197 327.786C104.63 328.537 105.497 328.923 106.345 328.743L116.802 326.52Z" fill="#FAC809" fill-opacity="0.2"/>
<path d="M363.985 326.52C365.88 326.117 367.184 328.375 365.887 329.815L358.734 337.759C358.154 338.403 358.055 339.347 358.488 340.097L363.834 349.355C364.802 351.033 363.058 352.97 361.288 352.182L351.522 347.834C350.73 347.482 349.802 347.679 349.222 348.323L342.069 356.267C340.773 357.707 338.391 356.647 338.594 354.72L339.711 344.089C339.802 343.227 339.327 342.405 338.536 342.052L328.77 337.704C327 336.916 327.272 334.324 329.167 333.921L339.624 331.698C340.471 331.518 341.107 330.813 341.197 329.951L342.315 319.319C342.517 317.393 345.067 316.851 346.036 318.528L351.381 327.786C351.814 328.537 352.681 328.923 353.529 328.743L363.985 326.52Z" fill="#FAC809" fill-opacity="0.2"/>
<path d="M242.613 322.081C244.508 321.678 245.812 323.935 244.515 325.375L237.362 333.32C236.782 333.963 236.683 334.907 237.116 335.658L242.461 344.916C243.43 346.594 241.686 348.531 239.916 347.743L230.15 343.395C229.358 343.042 228.43 343.24 227.85 343.884L220.697 351.828C219.401 353.268 217.019 352.208 217.222 350.281L218.339 339.649C218.43 338.787 217.955 337.965 217.164 337.613L207.398 333.265C205.628 332.477 205.9 329.884 207.795 329.481L218.252 327.259C219.099 327.079 219.734 326.373 219.825 325.512L220.942 314.88C221.145 312.953 223.695 312.411 224.664 314.089L230.009 323.347C230.442 324.097 231.309 324.483 232.157 324.303L242.613 322.081Z" fill="#FAC809" fill-opacity="0.2"/>
<path d="M366.945 199.967C368.84 199.565 370.144 201.822 368.847 203.262L361.694 211.206C361.114 211.85 361.015 212.794 361.448 213.545L366.793 222.803C367.762 224.48 366.018 226.418 364.248 225.63L354.482 221.282C353.69 220.929 352.762 221.126 352.182 221.77L345.029 229.715C343.733 231.155 341.351 230.094 341.554 228.167L342.671 217.536C342.762 216.674 342.287 215.852 341.496 215.5L331.73 211.152C329.96 210.364 330.232 207.771 332.127 207.368L342.584 205.146C343.431 204.965 344.067 204.26 344.157 203.398L345.275 192.767C345.477 190.84 348.027 190.298 348.996 191.976L354.341 201.234C354.774 201.984 355.641 202.37 356.489 202.19L366.945 199.967Z" fill="#FAC809" fill-opacity="0.2"/>
<path d="M177.488 23.0914C179.383 22.6886 180.687 24.9462 179.39 26.386L172.237 34.3303C171.657 34.9742 171.558 35.9182 171.991 36.6686L177.336 45.9266C178.305 47.6045 176.561 49.5417 174.791 48.7537L165.025 44.4056C164.233 44.0532 163.305 44.2505 162.725 44.8944L155.572 52.8388C154.276 54.2786 151.894 53.2183 152.097 51.2914L153.214 40.6598C153.305 39.7981 152.83 38.9761 152.039 38.6237L142.273 34.2756C140.503 33.4875 140.775 30.895 142.67 30.4922L153.127 28.2696C153.974 28.0894 154.609 27.384 154.7 26.5223L155.817 15.8907C156.02 13.9639 158.57 13.4219 159.539 15.0998L164.884 24.3577C165.317 25.1081 166.184 25.4942 167.032 25.314L177.488 23.0914Z" fill="#FAC809" fill-opacity="0.2"/>
<path d="M177.488 407.091C179.383 406.689 180.687 408.946 179.39 410.386L172.237 418.33C171.657 418.974 171.558 419.918 171.991 420.669L177.336 429.927C178.305 431.604 176.561 433.542 174.791 432.754L165.025 428.406C164.233 428.053 163.305 428.251 162.725 428.894L155.572 436.839C154.276 438.279 151.894 437.218 152.097 435.291L153.214 424.66C153.305 423.798 152.83 422.976 152.039 422.624L142.273 418.276C140.503 417.488 140.775 414.895 142.67 414.492L153.127 412.27C153.974 412.089 154.609 411.384 154.7 410.522L155.817 399.891C156.02 397.964 158.57 397.422 159.539 399.1L164.884 408.358C165.317 409.108 166.184 409.494 167.032 409.314L177.488 407.091Z" fill="#FAC809" fill-opacity="0.2"/>
<path d="M305.519 30.4928C307.414 30.09 308.718 32.3475 307.421 33.7873L300.268 41.7317C299.689 42.3756 299.589 43.3196 300.023 44.07L305.368 53.3279C306.336 55.0058 304.592 56.9431 302.822 56.155L293.056 51.8069C292.265 51.4545 291.336 51.6519 290.756 52.2958L283.603 60.2401C282.307 61.6799 279.925 60.6196 280.128 58.6928L281.245 48.0612C281.336 47.1995 280.861 46.3775 280.07 46.025L270.304 41.6769C268.534 40.8889 268.806 38.2964 270.701 37.8936L281.158 35.6709C282.006 35.4908 282.641 34.7854 282.731 33.9237L283.849 23.2921C284.051 21.3652 286.601 20.8233 287.57 22.5011L292.915 31.7591C293.348 32.5095 294.215 32.8955 295.063 32.7154L305.519 30.4928Z" fill="#FAC809" fill-opacity="0.2"/>
<path d="M305.519 414.493C307.414 414.09 308.718 416.348 307.421 417.787L300.268 425.732C299.689 426.376 299.589 427.32 300.023 428.07L305.368 437.328C306.336 439.006 304.592 440.943 302.822 440.155L293.056 435.807C292.265 435.455 291.336 435.652 290.756 436.296L283.603 444.24C282.307 445.68 279.925 444.62 280.128 442.693L281.245 432.061C281.336 431.199 280.861 430.377 280.07 430.025L270.304 425.677C268.534 424.889 268.806 422.296 270.701 421.894L281.158 419.671C282.006 419.491 282.641 418.785 282.731 417.924L283.849 407.292C284.051 405.365 286.601 404.823 287.57 406.501L292.915 415.759C293.348 416.509 294.215 416.896 295.063 416.715L305.519 414.493Z" fill="#FAC809" fill-opacity="0.2"/>
<path d="M50.1961 23.0914C52.0912 22.6886 53.3946 24.9462 52.0982 26.386L44.9451 34.3303C44.3653 34.9742 44.2661 35.9182 44.6993 36.6686L50.0444 45.9266C51.0132 47.6045 49.2689 49.5417 47.4989 48.7537L37.7329 44.4056C36.9414 44.0532 36.0129 44.2505 35.4332 44.8944L28.28 52.8388C26.9836 54.2786 24.6022 53.2183 24.8047 51.2914L25.9221 40.6598C26.0127 39.7981 25.5381 38.9761 24.7466 38.6237L14.9806 34.2756C13.2106 33.4875 13.4831 30.895 15.3782 30.4922L25.8348 28.2696C26.6823 28.0894 27.3175 27.384 27.408 26.5223L28.5255 15.8907C28.728 13.9639 31.2778 13.4219 32.2466 15.0998L37.5917 24.3577C38.0249 25.1081 38.892 25.4942 39.7395 25.314L50.1961 23.0914Z" fill="#FAC809" fill-opacity="0.2"/>
<path d="M50.1961 407.091C52.0912 406.689 53.3946 408.946 52.0982 410.386L44.9451 418.33C44.3653 418.974 44.2661 419.918 44.6993 420.669L50.0444 429.927C51.0132 431.604 49.2689 433.542 47.4989 432.754L37.7329 428.406C36.9414 428.053 36.0129 428.251 35.4332 428.894L28.28 436.839C26.9836 438.279 24.6022 437.218 24.8047 435.291L25.9221 424.66C26.0127 423.798 25.5381 422.976 24.7466 422.624L14.9806 418.276C13.2106 417.488 13.4831 414.895 15.3782 414.492L25.8348 412.27C26.6823 412.089 27.3175 411.384 27.408 410.522L28.5255 399.891C28.728 397.964 31.2778 397.422 32.2466 399.1L37.5917 408.358C38.0249 409.108 38.892 409.494 39.7395 409.314L50.1961 407.091Z" fill="#FAC809" fill-opacity="0.2"/>
<path d="M116.802 197.748C118.697 197.345 120 199.602 118.704 201.042L111.551 208.987C110.971 209.63 110.872 210.574 111.305 211.325L116.65 220.583C117.619 222.261 115.874 224.198 114.104 223.41L104.338 219.062C103.547 218.709 102.618 218.907 102.039 219.551L94.8855 227.495C93.5891 228.935 91.2077 227.875 91.4102 225.948L92.5276 215.316C92.6182 214.454 92.1436 213.632 91.352 213.28L81.5861 208.932C79.8161 208.144 80.0886 205.551 81.9837 205.148L92.4403 202.926C93.2878 202.746 93.9229 202.04 94.0135 201.179L95.1309 190.547C95.3335 188.62 97.8833 188.078 98.852 189.756L104.197 199.014C104.63 199.764 105.497 200.15 106.345 199.97L116.802 197.748Z" fill="#FAC809" fill-opacity="0.2"/>
<path d="M45.2249 155.253C47.12 154.85 48.4234 157.108 47.127 158.548L43.0565 163.069C42.4767 163.712 42.3775 164.656 42.8108 165.407L45.8524 170.675C46.8211 172.353 45.0768 174.29 43.3068 173.502L37.7495 171.028C36.958 170.675 36.0295 170.873 35.4498 171.517L31.3793 176.037C30.0829 177.477 27.7015 176.417 27.904 174.49L28.5398 168.44C28.6304 167.579 28.1558 166.756 27.3643 166.404L21.807 163.93C20.037 163.142 20.3095 160.549 22.2046 160.146L28.1549 158.882C29.0024 158.702 29.6376 157.996 29.7281 157.134L30.364 151.085C30.5665 149.158 33.1164 148.616 34.0851 150.294L37.1267 155.562C37.5599 156.312 38.4271 156.698 39.2746 156.518L45.2249 155.253Z" fill="#FAC809" fill-opacity="0.2"/>
<path d="M45.2249 281.065C47.12 280.662 48.4234 282.92 47.127 284.359L43.0565 288.88C42.4767 289.524 42.3775 290.468 42.8108 291.218L45.8524 296.487C46.8211 298.164 45.0768 300.102 43.3068 299.314L37.7495 296.839C36.958 296.487 36.0295 296.684 35.4498 297.328L31.3793 301.849C30.0829 303.289 27.7015 302.228 27.904 300.302L28.5398 294.252C28.6304 293.39 28.1558 292.568 27.3643 292.216L21.807 289.741C20.037 288.953 20.3095 286.361 22.2046 285.958L28.1549 284.693C29.0024 284.513 29.6376 283.808 29.7281 282.946L30.364 276.896C30.5665 274.969 33.1164 274.427 34.0851 276.105L37.1267 281.373C37.5599 282.124 38.4271 282.51 39.2746 282.33L45.2249 281.065Z" fill="#FAC809" fill-opacity="0.2"/>
<path d="M171.777 284.026C173.672 283.623 174.975 285.881 173.679 287.32L169.608 291.841C169.029 292.485 168.929 293.429 169.363 294.179L172.404 299.448C173.373 301.125 171.629 303.063 169.859 302.275L164.301 299.8C163.51 299.448 162.581 299.645 162.002 300.289L157.931 304.81C156.635 306.25 154.253 305.189 154.456 303.263L155.092 297.213C155.182 296.351 154.708 295.529 153.916 295.177L148.359 292.702C146.589 291.914 146.861 289.322 148.756 288.919L154.707 287.654C155.554 287.474 156.189 286.769 156.28 285.907L156.916 279.857C157.118 277.93 159.668 277.388 160.637 279.066L163.678 284.334C164.112 285.085 164.979 285.471 165.826 285.291L171.777 284.026Z" fill="#FAC809" fill-opacity="0.2"/>
<path d="M297.589 281.065C299.484 280.662 300.788 282.92 299.491 284.359L295.421 288.88C294.841 289.524 294.742 290.468 295.175 291.218L298.217 296.487C299.185 298.164 297.441 300.102 295.671 299.314L290.114 296.839C289.322 296.487 288.394 296.684 287.814 297.328L283.744 301.849C282.447 303.289 280.066 302.228 280.268 300.302L280.904 294.252C280.995 293.39 280.52 292.568 279.729 292.216L274.171 289.741C272.401 288.953 272.674 286.361 274.569 285.958L280.519 284.693C281.367 284.513 282.002 283.808 282.092 282.946L282.728 276.896C282.931 274.969 285.481 274.427 286.449 276.105L289.491 281.373C289.924 282.124 290.791 282.51 291.639 282.33L297.589 281.065Z" fill="#FAC809" fill-opacity="0.2"/>
<path d="M325.812 107.018C326.76 106.817 327.411 107.945 326.763 108.665L322.354 113.562C322.064 113.884 322.015 114.356 322.231 114.731L325.526 120.438C326.01 121.277 325.138 122.245 324.253 121.851L318.234 119.171C317.838 118.995 317.374 119.094 317.084 119.415L312.675 124.312C312.026 125.032 310.836 124.502 310.937 123.539L311.626 116.985C311.671 116.555 311.434 116.144 311.038 115.967L305.018 113.287C304.133 112.893 304.27 111.597 305.217 111.396L311.662 110.026C312.086 109.936 312.404 109.583 312.449 109.152L313.138 102.599C313.239 101.635 314.514 101.364 314.998 102.203L318.293 107.91C318.51 108.285 318.943 108.478 319.367 108.388L325.812 107.018Z" fill="#FAC809" fill-opacity="0.2"/>
<path d="M200.001 107.757C200.948 107.556 201.6 108.685 200.952 109.405L196.543 114.301C196.253 114.623 196.203 115.095 196.42 115.47L199.714 121.177C200.199 122.016 199.327 122.984 198.442 122.59L192.422 119.91C192.026 119.734 191.562 119.833 191.272 120.155L186.863 125.051C186.215 125.771 185.024 125.241 185.125 124.278L185.814 117.725C185.859 117.294 185.622 116.883 185.226 116.707L179.207 114.027C178.322 113.633 178.458 112.336 179.406 112.135L185.851 110.765C186.275 110.675 186.592 110.322 186.638 109.891L187.326 103.338C187.428 102.375 188.702 102.104 189.187 102.943L192.481 108.649C192.698 109.024 193.132 109.217 193.555 109.127L200.001 107.757Z" fill="#FAC809" fill-opacity="0.2"/>
<path d="M325.812 234.31C326.76 234.109 327.411 235.237 326.763 235.957L322.354 240.854C322.064 241.176 322.015 241.648 322.231 242.023L325.526 247.73C326.01 248.569 325.138 249.537 324.253 249.143L318.234 246.463C317.838 246.287 317.374 246.386 317.084 246.707L312.675 251.604C312.026 252.324 310.836 251.794 310.937 250.831L311.626 244.277C311.671 243.847 311.434 243.436 311.038 243.259L305.018 240.579C304.133 240.185 304.27 238.889 305.217 238.688L311.662 237.318C312.086 237.228 312.404 236.875 312.449 236.444L313.138 229.891C313.239 228.927 314.514 228.656 314.998 229.495L318.293 235.202C318.51 235.577 318.943 235.77 319.367 235.68L325.812 234.31Z" fill="#FAC809" fill-opacity="0.2"/>
<path d="M202.96 232.09C203.907 231.889 204.559 233.018 203.911 233.738L199.502 238.634C199.212 238.956 199.162 239.428 199.379 239.803L202.673 245.51C203.158 246.349 202.286 247.317 201.401 246.923L195.381 244.243C194.985 244.067 194.521 244.166 194.231 244.488L189.822 249.384C189.174 250.104 187.983 249.574 188.084 248.611L188.773 242.058C188.818 241.627 188.581 241.216 188.185 241.04L182.166 238.36C181.281 237.966 181.417 236.669 182.365 236.468L188.81 235.098C189.234 235.008 189.551 234.655 189.597 234.224L190.285 227.671C190.387 226.708 191.661 226.437 192.146 227.276L195.44 232.982C195.657 233.357 196.091 233.55 196.514 233.46L202.96 232.09Z" fill="#FAC809" fill-opacity="0.2"/>
<path d="M70.487 232.09C71.4345 231.889 72.0862 233.018 71.438 233.738L67.029 238.634C66.7391 238.956 66.6895 239.428 66.9061 239.803L70.2007 245.51C70.6851 246.349 69.8129 247.317 68.928 246.923L62.9084 244.243C62.5126 244.067 62.0484 244.166 61.7585 244.488L57.3494 249.384C56.7012 250.104 55.5105 249.574 55.6118 248.611L56.3005 242.058C56.3458 241.627 56.1085 241.216 55.7128 241.04L49.6932 238.36C48.8082 237.966 48.9445 236.669 49.892 236.468L56.3373 235.098C56.761 235.008 57.0786 234.655 57.1239 234.224L57.8126 227.671C57.9139 226.708 59.1888 226.437 59.6732 227.276L62.9678 232.982C63.1844 233.357 63.618 233.55 64.0417 233.46L70.487 232.09Z" fill="#FAC809" fill-opacity="0.2"/>
<path d="M201.48 361.604C202.428 361.402 203.079 362.531 202.431 363.251L198.022 368.148C197.732 368.47 197.683 368.942 197.899 369.317L201.194 375.024C201.678 375.862 200.806 376.831 199.921 376.437L193.902 373.757C193.506 373.581 193.042 373.679 192.752 374.001L188.343 378.898C187.694 379.618 186.504 379.088 186.605 378.125L187.294 371.571C187.339 371.141 187.102 370.729 186.706 370.553L180.686 367.873C179.801 367.479 179.938 366.183 180.885 365.982L187.33 364.612C187.754 364.521 188.072 364.169 188.117 363.738L188.806 357.185C188.907 356.221 190.182 355.95 190.666 356.789L193.961 362.496C194.178 362.871 194.611 363.064 195.035 362.974L201.48 361.604Z" fill="#FAC809" fill-opacity="0.2"/>
<path d="M328.031 360.122C328.978 359.921 329.63 361.05 328.982 361.77L324.573 366.667C324.283 366.988 324.233 367.46 324.45 367.836L327.745 373.542C328.229 374.381 327.357 375.35 326.472 374.956L320.452 372.276C320.057 372.099 319.592 372.198 319.302 372.52L314.893 377.417C314.245 378.137 313.054 377.606 313.156 376.643L313.844 370.09C313.89 369.659 313.652 369.248 313.257 369.072L307.237 366.392C306.352 365.998 306.488 364.701 307.436 364.5L313.881 363.13C314.305 363.04 314.623 362.687 314.668 362.256L315.357 355.703C315.458 354.74 316.733 354.469 317.217 355.308L320.512 361.014C320.728 361.389 321.162 361.583 321.586 361.492L328.031 360.122Z" fill="#FAC809" fill-opacity="0.2"/>
<path d="M72.7067 360.861C73.6543 360.659 74.306 361.788 73.6578 362.508L69.2487 367.405C68.9588 367.727 68.9092 368.199 69.1258 368.574L72.4204 374.28C72.9048 375.119 72.0327 376.088 71.1477 375.694L65.1281 373.014C64.7323 372.838 64.2681 372.936 63.9782 373.258L59.5692 378.155C58.921 378.875 57.7302 378.345 57.8315 377.381L58.5203 370.828C58.5655 370.397 58.3283 369.986 57.9325 369.81L51.9129 367.13C51.0279 366.736 51.1642 365.44 52.1117 365.238L58.557 363.868C58.9807 363.778 59.2983 363.426 59.3436 362.995L60.0324 356.442C60.1336 355.478 61.4085 355.207 61.8929 356.046L65.1875 361.753C65.4041 362.128 65.8377 362.321 66.2615 362.231L72.7067 360.861Z" fill="#FAC809" fill-opacity="0.2"/>
<path d="M301.288 155.253C303.183 154.85 304.487 157.108 303.19 158.548L299.12 163.069C298.54 163.712 298.441 164.656 298.874 165.407L301.916 170.675C302.885 172.353 301.14 174.29 299.37 173.502L293.813 171.028C293.021 170.675 292.093 170.873 291.513 171.517L287.443 176.037C286.146 177.477 283.765 176.417 283.967 174.49L284.603 168.44C284.694 167.579 284.219 166.756 283.428 166.404L277.87 163.93C276.101 163.142 276.373 160.549 278.268 160.146L284.218 158.882C285.066 158.702 285.701 157.996 285.792 157.134L286.427 151.085C286.63 149.158 289.18 148.616 290.149 150.294L293.19 155.562C293.623 156.312 294.491 156.698 295.338 156.518L301.288 155.253Z" fill="#FAC809" fill-opacity="0.2"/>
<path d="M70.3549 110.958C72.1975 111.557 72.1975 114.164 70.3549 114.762L67.6191 115.651C66.7951 115.919 66.2371 116.687 66.2371 117.553L66.2371 120.43C66.2371 122.367 63.7579 123.173 62.6191 121.605L60.9283 119.278C60.419 118.577 59.5163 118.284 58.6922 118.552L55.9564 119.441C54.1138 120.039 52.5816 117.93 53.7204 116.363L55.4112 114.036C55.9205 113.335 55.9205 112.386 55.4112 111.685L53.7204 109.357C52.5816 107.79 54.1138 105.681 55.9564 106.28L58.6922 107.169C59.5163 107.436 60.419 107.143 60.9283 106.442L62.6191 104.115C63.7579 102.547 66.2371 103.353 66.2371 105.29L66.2371 108.167C66.2371 109.033 66.7951 109.801 67.6191 110.069L70.3549 110.958Z" fill="#FAC809" fill-opacity="0.2"/>
<path d="M65.1413 74.9068C66.0626 75.2061 66.0626 76.5095 65.1413 76.8089L62.3671 77.7103C61.9551 77.8441 61.6761 78.2281 61.6761 78.6613L61.6761 81.5783C61.6761 82.547 60.4365 82.9498 59.8671 82.1661L58.1526 79.8062C57.8979 79.4557 57.4466 79.3091 57.0346 79.4429L54.2604 80.3443C53.3391 80.6437 52.5729 79.5892 53.1423 78.8055L54.8569 76.4456C55.1115 76.0951 55.1115 75.6205 54.8569 75.27L53.1423 72.9102C52.5729 72.1265 53.3391 71.072 54.2604 71.3713L57.0346 72.2727C57.4466 72.4066 57.8979 72.2599 58.1526 71.9095L59.8671 69.5496C60.4365 68.7659 61.6761 69.1687 61.6761 70.1374L61.6761 73.0543C61.6761 73.4876 61.9551 73.8715 62.3671 74.0054L65.1413 74.9068Z" fill="#FAC809" fill-opacity="0.2"/>
<path d="M65.1413 458.907C66.0626 459.207 66.0626 460.51 65.1413 460.809L62.3671 461.711C61.9551 461.845 61.6761 462.229 61.6761 462.662L61.6761 465.579C61.6761 466.547 60.4365 466.95 59.8671 466.167L58.1526 463.807C57.8979 463.456 57.4466 463.31 57.0346 463.443L54.2604 464.345C53.3391 464.644 52.5729 463.59 53.1423 462.806L54.8569 460.446C55.1115 460.096 55.1115 459.621 54.8569 459.271L53.1423 456.911C52.5729 456.127 53.3391 455.072 54.2604 455.372L57.0346 456.273C57.4466 456.407 57.8979 456.26 58.1526 455.91L59.8671 453.55C60.4365 452.766 61.6761 453.169 61.6761 454.138L61.6761 457.055C61.6761 457.488 61.9551 457.872 62.3671 458.006L65.1413 458.907Z" fill="#FAC809" fill-opacity="0.2"/>
<path d="M150.99 88.2281C151.911 88.5274 151.911 89.8308 150.99 90.1302L148.216 91.0316C147.804 91.1654 147.525 91.5494 147.525 91.9826L147.525 94.8996C147.525 95.8683 146.285 96.2711 145.716 95.4873L144.001 93.1275C143.747 92.777 143.295 92.6303 142.883 92.7642L140.109 93.6656C139.188 93.965 138.422 92.9105 138.991 92.1268L140.706 89.7669C140.96 89.4164 140.96 88.9418 140.706 88.5913L138.991 86.2315C138.422 85.4478 139.188 84.3933 140.109 84.6926L142.883 85.594C143.295 85.7279 143.747 85.5812 144.001 85.2307L145.716 82.8709C146.285 82.0872 147.525 82.49 147.525 83.4587L147.525 86.3756C147.525 86.8088 147.804 87.1928 148.216 87.3267L150.99 88.2281Z" fill="#FAC809" fill-opacity="0.2"/>
<path d="M150.99 472.228C151.911 472.527 151.911 473.83 150.99 474.13L148.216 475.031C147.804 475.165 147.525 475.549 147.525 475.982L147.525 478.899C147.525 479.868 146.285 480.271 145.716 479.487L144.001 477.127C143.747 476.777 143.295 476.63 142.883 476.764L140.109 477.665C139.188 477.964 138.422 476.91 138.991 476.126L140.706 473.766C140.96 473.416 140.96 472.941 140.706 472.591L138.991 470.231C138.422 469.447 139.188 468.393 140.109 468.692L142.883 469.594C143.295 469.727 143.747 469.581 144.001 469.23L145.716 466.87C146.285 466.087 147.525 466.489 147.525 467.458L147.525 470.375C147.525 470.808 147.804 471.192 148.216 471.326L150.99 472.228Z" fill="#FAC809" fill-opacity="0.2"/>
<path d="M212.416 42.3433C213.337 42.6426 213.337 43.9461 212.416 44.2454L209.642 45.1468C209.23 45.2807 208.951 45.6646 208.951 46.0979L208.951 49.0148C208.951 49.9835 207.711 50.3863 207.142 49.6026L205.427 47.2427C205.172 46.8922 204.721 46.7456 204.309 46.8795L201.535 47.7808C200.613 48.0802 199.847 47.0257 200.417 46.242L202.131 43.8821C202.386 43.5316 202.386 43.0571 202.131 42.7066L200.417 40.3467C199.847 39.563 200.613 38.5085 201.535 38.8079L204.309 39.7093C204.721 39.8431 205.172 39.6965 205.427 39.346L207.142 36.9861C207.711 36.2024 208.951 36.6052 208.951 37.5739L208.951 40.4909C208.951 40.9241 209.23 41.308 209.642 41.4419L212.416 42.3433Z" fill="#FAC809" fill-opacity="0.2"/>
<path d="M212.416 426.343C213.337 426.642 213.337 427.946 212.416 428.245L209.642 429.146C209.23 429.28 208.951 429.664 208.951 430.097L208.951 433.014C208.951 433.983 207.711 434.386 207.142 433.602L205.427 431.242C205.172 430.892 204.721 430.745 204.309 430.879L201.535 431.78C200.613 432.08 199.847 431.025 200.417 430.242L202.131 427.882C202.386 427.531 202.386 427.057 202.131 426.706L200.417 424.346C199.847 423.563 200.613 422.508 201.535 422.807L204.309 423.709C204.721 423.843 205.172 423.696 205.427 423.345L207.142 420.986C207.711 420.202 208.951 420.605 208.951 421.573L208.951 424.49C208.951 424.924 209.23 425.308 209.642 425.441L212.416 426.343Z" fill="#FAC809" fill-opacity="0.2"/>
<path d="M280.503 90.4473C281.424 90.7467 281.424 92.0501 280.503 92.3494L277.728 93.2508C277.316 93.3847 277.037 93.7686 277.037 94.2019L277.037 97.1188C277.037 98.0875 275.798 98.4903 275.228 97.7066L273.514 95.3467C273.259 94.9962 272.808 94.8496 272.396 94.9835L269.622 95.8848C268.7 96.1842 267.934 95.1297 268.504 94.346L270.218 91.9861C270.473 91.6357 270.473 91.1611 270.218 90.8106L268.504 88.4507C267.934 87.667 268.7 86.6125 269.622 86.9119L272.396 87.8133C272.808 87.9471 273.259 87.8005 273.514 87.45L275.228 85.0901C275.798 84.3064 277.037 84.7092 277.037 85.6779L277.037 88.5949C277.037 89.0281 277.316 89.412 277.728 89.5459L280.503 90.4473Z" fill="#FAC809" fill-opacity="0.2"/>
<path d="M280.503 474.447C281.424 474.747 281.424 476.05 280.503 476.349L277.728 477.251C277.316 477.385 277.037 477.769 277.037 478.202L277.037 481.119C277.037 482.088 275.798 482.49 275.228 481.707L273.514 479.347C273.259 478.996 272.808 478.85 272.396 478.983L269.622 479.885C268.7 480.184 267.934 479.13 268.504 478.346L270.218 475.986C270.473 475.636 270.473 475.161 270.218 474.811L268.504 472.451C267.934 471.667 268.7 470.613 269.622 470.912L272.396 471.813C272.808 471.947 273.259 471.8 273.514 471.45L275.228 469.09C275.798 468.306 277.037 468.709 277.037 469.678L277.037 472.595C277.037 473.028 277.316 473.412 277.728 473.546L280.503 474.447Z" fill="#FAC809" fill-opacity="0.2"/>
<path d="M258.301 125.231C259.223 125.53 259.223 126.834 258.301 127.133L255.527 128.034C255.115 128.168 254.836 128.552 254.836 128.986L254.836 131.902C254.836 132.871 253.597 133.274 253.027 132.49L251.313 130.13C251.058 129.78 250.607 129.633 250.195 129.767L247.421 130.669C246.499 130.968 245.733 129.913 246.303 129.13L248.017 126.77C248.272 126.419 248.272 125.945 248.017 125.594L246.303 123.234C245.733 122.451 246.499 121.396 247.421 121.696L250.195 122.597C250.607 122.731 251.058 122.584 251.313 122.234L253.027 119.874C253.597 119.09 254.836 119.493 254.836 120.462L254.836 123.379C254.836 123.812 255.115 124.196 255.527 124.33L258.301 125.231Z" fill="#FAC809" fill-opacity="0.2"/>
<path d="M211.675 169.638C212.597 169.937 212.597 171.24 211.675 171.54L208.901 172.441C208.489 172.575 208.21 172.959 208.21 173.392L208.21 176.309C208.21 177.278 206.971 177.681 206.401 176.897L204.687 174.537C204.432 174.187 203.981 174.04 203.569 174.174L200.795 175.075C199.873 175.375 199.107 174.32 199.677 173.536L201.391 171.177C201.646 170.826 201.646 170.351 201.391 170.001L199.677 167.641C199.107 166.857 199.873 165.803 200.795 166.102L203.569 167.004C203.981 167.138 204.432 166.991 204.687 166.64L206.401 164.281C206.971 163.497 208.21 163.9 208.21 164.868L208.21 167.785C208.21 168.219 208.489 168.602 208.901 168.736L211.675 169.638Z" fill="#FAC809" fill-opacity="0.2"/>
<path d="M387.073 380.556C387.994 380.855 387.994 382.158 387.073 382.458L384.299 383.359C383.887 383.493 383.608 383.877 383.608 384.31L383.608 387.227C383.608 388.196 382.368 388.599 381.799 387.815L380.084 385.455C379.83 385.105 379.378 384.958 378.966 385.092L376.192 385.993C375.271 386.293 374.505 385.238 375.074 384.454L376.789 382.095C377.043 381.744 377.043 381.269 376.789 380.919L375.074 378.559C374.505 377.775 375.271 376.721 376.192 377.02L378.966 377.922C379.378 378.056 379.83 377.909 380.084 377.558L381.799 375.199C382.368 374.415 383.608 374.818 383.608 375.786L383.608 378.703C383.608 379.136 383.887 379.52 384.299 379.654L387.073 380.556Z" fill="#FAC809" fill-opacity="0.2"/>
<path d="M339.709 40.8643C340.63 41.1636 340.63 42.4671 339.709 42.7664L336.935 43.6678C336.522 43.8017 336.244 44.1856 336.244 44.6188L336.244 47.5358C336.244 48.5045 335.004 48.9073 334.435 48.1236L332.72 45.7637C332.465 45.4132 332.014 45.2666 331.602 45.4004L328.828 46.3018C327.906 46.6012 327.14 45.5467 327.71 44.763L329.424 42.4031C329.679 42.0526 329.679 41.5781 329.424 41.2276L327.71 38.8677C327.14 38.084 327.906 37.0295 328.828 37.3289L331.602 38.2303C332.014 38.3641 332.465 38.2175 332.72 37.867L334.435 35.5071C335.004 34.7234 336.244 35.1262 336.244 36.0949L336.244 39.0119C336.244 39.4451 336.522 39.829 336.935 39.9629L339.709 40.8643Z" fill="#FAC809" fill-opacity="0.2"/>
<path d="M339.709 424.864C340.63 425.164 340.63 426.467 339.709 426.766L336.935 427.668C336.522 427.802 336.244 428.186 336.244 428.619L336.244 431.536C336.244 432.505 335.004 432.907 334.435 432.124L332.72 429.764C332.465 429.413 332.014 429.267 331.602 429.4L328.828 430.302C327.906 430.601 327.14 429.547 327.71 428.763L329.424 426.403C329.679 426.053 329.679 425.578 329.424 425.228L327.71 422.868C327.14 422.084 327.906 421.03 328.828 421.329L331.602 422.23C332.014 422.364 332.465 422.217 332.72 421.867L334.435 419.507C335.004 418.723 336.244 419.126 336.244 420.095L336.244 423.012C336.244 423.445 336.522 423.829 336.935 423.963L339.709 424.864Z" fill="#FAC809" fill-opacity="0.2"/>
<path d="M387.073 125.231C387.994 125.53 387.994 126.834 387.073 127.133L384.299 128.034C383.887 128.168 383.608 128.552 383.608 128.986L383.608 131.902C383.608 132.871 382.368 133.274 381.799 132.49L380.084 130.13C379.83 129.78 379.378 129.633 378.966 129.767L376.192 130.669C375.271 130.968 374.505 129.913 375.074 129.13L376.789 126.77C377.043 126.419 377.043 125.945 376.789 125.594L375.074 123.234C374.505 122.451 375.271 121.396 376.192 121.696L378.966 122.597C379.378 122.731 379.83 122.584 380.084 122.234L381.799 119.874C382.368 119.09 383.608 119.493 383.608 120.462L383.608 123.379C383.608 123.812 383.887 124.196 384.299 124.33L387.073 125.231Z" fill="#FAC809" fill-opacity="0.2"/>
<path d="M335.267 171.856C336.189 172.155 336.189 173.458 335.267 173.758L332.493 174.659C332.081 174.793 331.802 175.177 331.802 175.61L331.802 178.527C331.802 179.496 330.563 179.899 329.993 179.115L328.279 176.755C328.024 176.404 327.573 176.258 327.161 176.392L324.386 177.293C323.465 177.592 322.699 176.538 323.268 175.754L324.983 173.394C325.238 173.044 325.238 172.569 324.983 172.219L323.268 169.859C322.699 169.075 323.465 168.021 324.386 168.32L327.161 169.221C327.573 169.355 328.024 169.209 328.279 168.858L329.993 166.498C330.563 165.715 331.802 166.117 331.802 167.086L331.802 170.003C331.802 170.436 332.081 170.82 332.493 170.954L335.267 171.856Z" fill="#FAC809" fill-opacity="0.2"/>
<path d="M385.593 250.304C386.515 250.603 386.515 251.907 385.593 252.206L382.819 253.107C382.407 253.241 382.128 253.625 382.128 254.058L382.128 256.975C382.128 257.944 380.889 258.347 380.319 257.563L378.605 255.203C378.35 254.853 377.899 254.706 377.487 254.84L374.713 255.741C373.791 256.041 373.025 254.986 373.594 254.202L375.309 251.843C375.564 251.492 375.564 251.018 375.309 250.667L373.594 248.307C373.025 247.523 373.791 246.469 374.713 246.768L377.487 247.67C377.899 247.804 378.35 247.657 378.605 247.306L380.319 244.947C380.889 244.163 382.128 244.566 382.128 245.534L382.128 248.451C382.128 248.885 382.407 249.268 382.819 249.402L385.593 250.304Z" fill="#FAC809" fill-opacity="0.2"/>
<path d="M276.802 217C277.724 217.299 277.724 218.603 276.802 218.902L274.028 219.804C273.616 219.937 273.337 220.321 273.337 220.755L273.337 223.672C273.337 224.64 272.098 225.043 271.528 224.259L269.814 221.899C269.559 221.549 269.108 221.402 268.696 221.536L265.922 222.438C265 222.737 264.234 221.682 264.803 220.899L266.518 218.539C266.773 218.188 266.773 217.714 266.518 217.363L264.803 215.003C264.234 214.22 265 213.165 265.922 213.465L268.696 214.366C269.108 214.5 269.559 214.353 269.814 214.003L271.528 211.643C272.098 210.859 273.337 211.262 273.337 212.231L273.337 215.148C273.337 215.581 273.616 215.965 274.028 216.099L276.802 217Z" fill="#FAC809" fill-opacity="0.2"/>
<path d="M258.301 256.224C259.223 256.523 259.223 257.826 258.301 258.126L255.527 259.027C255.115 259.161 254.836 259.545 254.836 259.978L254.836 262.895C254.836 263.864 253.597 264.267 253.027 263.483L251.313 261.123C251.058 260.773 250.607 260.626 250.195 260.76L247.421 261.661C246.499 261.961 245.733 260.906 246.303 260.122L248.017 257.763C248.272 257.412 248.272 256.937 248.017 256.587L246.303 254.227C245.733 253.443 246.499 252.389 247.421 252.688L250.195 253.59C250.607 253.723 251.058 253.577 251.313 253.226L253.027 250.866C253.597 250.083 254.836 250.486 254.836 251.454L254.836 254.371C254.836 254.804 255.115 255.188 255.527 255.322L258.301 256.224Z" fill="#FAC809" fill-opacity="0.2"/>
<path d="M209.456 297.667C210.377 297.966 210.377 299.27 209.456 299.569L206.682 300.471C206.27 300.604 205.991 300.988 205.991 301.422L205.991 304.339C205.991 305.307 204.751 305.71 204.182 304.926L202.467 302.566C202.212 302.216 201.761 302.069 201.349 302.203L198.575 303.105C197.654 303.404 196.887 302.349 197.457 301.566L199.171 299.206C199.426 298.855 199.426 298.381 199.171 298.03L197.457 295.67C196.887 294.887 197.654 293.832 198.575 294.132L201.349 295.033C201.761 295.167 202.212 295.02 202.467 294.67L204.182 292.31C204.751 291.526 205.991 291.929 205.991 292.898L205.991 295.815C205.991 296.248 206.27 296.632 206.682 296.766L209.456 297.667Z" fill="#FAC809" fill-opacity="0.2"/>
<path d="M132.49 251.784C133.411 252.084 133.411 253.387 132.49 253.686L129.716 254.588C129.304 254.722 129.025 255.106 129.025 255.539L129.025 258.456C129.025 259.424 127.785 259.827 127.216 259.043L125.501 256.684C125.247 256.333 124.795 256.186 124.383 256.32L121.609 257.222C120.688 257.521 119.922 256.467 120.491 255.683L122.206 253.323C122.46 252.973 122.46 252.498 122.206 252.147L120.491 249.788C119.922 249.004 120.688 247.949 121.609 248.249L124.383 249.15C124.795 249.284 125.247 249.137 125.501 248.787L127.216 246.427C127.785 245.643 129.025 246.046 129.025 247.015L129.025 249.932C129.025 250.365 129.304 250.749 129.716 250.883L132.49 251.784Z" fill="#FAC809" fill-opacity="0.2"/>
<path d="M82.1638 297.667C83.0851 297.966 83.0851 299.27 82.1638 299.569L79.3896 300.471C78.9776 300.604 78.6986 300.988 78.6986 301.422L78.6986 304.339C78.6986 305.307 77.459 305.71 76.8896 304.926L75.1751 302.566C74.9204 302.216 74.469 302.069 74.057 302.203L71.2828 303.105C70.3615 303.404 69.5954 302.349 70.1648 301.566L71.8793 299.206C72.134 298.855 72.134 298.381 71.8793 298.03L70.1648 295.67C69.5954 294.887 70.3615 293.832 71.2828 294.132L74.057 295.033C74.469 295.167 74.9204 295.02 75.1751 294.67L76.8896 292.31C77.459 291.526 78.6986 291.929 78.6986 292.898L78.6986 295.815C78.6986 296.248 78.9776 296.632 79.3896 296.766L82.1638 297.667Z" fill="#FAC809" fill-opacity="0.2"/>
<path d="M25.9187 341.331C26.84 341.63 26.84 342.934 25.9187 343.233L23.1445 344.135C22.7325 344.268 22.4535 344.652 22.4535 345.086L22.4535 348.003C22.4535 348.971 21.2139 349.374 20.6445 348.59L18.9299 346.231C18.6753 345.88 18.2239 345.733 17.8119 345.867L15.0377 346.769C14.1164 347.068 13.3503 346.014 13.9197 345.23L15.6342 342.87C15.8889 342.519 15.8889 342.045 15.6342 341.694L13.9197 339.335C13.3503 338.551 14.1164 337.496 15.0377 337.796L17.8119 338.697C18.2239 338.831 18.6753 338.684 18.9299 338.334L20.6445 335.974C21.2139 335.19 22.4535 335.593 22.4535 336.562L22.4535 339.479C22.4535 339.912 22.7325 340.296 23.1445 340.43L25.9187 341.331Z" fill="#FAC809" fill-opacity="0.2"/>
<path d="M151.73 341.331C152.651 341.63 152.651 342.934 151.73 343.233L148.956 344.135C148.544 344.268 148.265 344.652 148.265 345.086L148.265 348.003C148.265 348.971 147.025 349.374 146.456 348.59L144.741 346.231C144.487 345.88 144.035 345.733 143.623 345.867L140.849 346.769C139.928 347.068 139.162 346.014 139.731 345.23L141.446 342.87C141.7 342.519 141.7 342.045 141.446 341.694L139.731 339.335C139.162 338.551 139.928 337.496 140.849 337.796L143.623 338.697C144.035 338.831 144.487 338.684 144.741 338.334L146.456 335.974C147.025 335.19 148.265 335.593 148.265 336.562L148.265 339.479C148.265 339.912 148.544 340.296 148.956 340.43L151.73 341.331Z" fill="#FAC809" fill-opacity="0.2"/>
<path d="M134.709 376.856C135.63 377.155 135.63 378.458 134.709 378.758L131.935 379.659C131.522 379.793 131.244 380.177 131.244 380.61L131.244 383.527C131.244 384.496 130.004 384.899 129.435 384.115L127.72 381.755C127.465 381.404 127.014 381.258 126.602 381.392L123.828 382.293C122.906 382.592 122.14 381.538 122.71 380.754L124.424 378.394C124.679 378.044 124.679 377.569 124.424 377.219L122.71 374.859C122.14 374.075 122.906 373.021 123.828 373.32L126.602 374.221C127.014 374.355 127.465 374.209 127.72 373.858L129.435 371.498C130.004 370.715 131.244 371.117 131.244 372.086L131.244 375.003C131.244 375.436 131.522 375.82 131.935 375.954L134.709 376.856Z" fill="#FAC809" fill-opacity="0.2"/>
<path d="M258.301 380.556C259.223 380.855 259.223 382.158 258.301 382.458L255.527 383.359C255.115 383.493 254.836 383.877 254.836 384.31L254.836 387.227C254.836 388.196 253.597 388.599 253.027 387.815L251.313 385.455C251.058 385.105 250.607 384.958 250.195 385.092L247.421 385.993C246.499 386.293 245.733 385.238 246.303 384.454L248.017 382.095C248.272 381.744 248.272 381.269 248.017 380.919L246.303 378.559C245.733 377.775 246.499 376.721 247.421 377.02L250.195 377.922C250.607 378.056 251.058 377.909 251.313 377.558L253.027 375.199C253.597 374.415 254.836 374.818 254.836 375.786L254.836 378.703C254.836 379.136 255.115 379.52 255.527 379.654L258.301 380.556Z" fill="#FAC809" fill-opacity="0.2"/>
<path d="M280.503 341.331C281.424 341.63 281.424 342.934 280.503 343.233L277.728 344.135C277.316 344.268 277.037 344.652 277.037 345.086L277.037 348.003C277.037 348.971 275.798 349.374 275.228 348.59L273.514 346.231C273.259 345.88 272.808 345.733 272.396 345.867L269.622 346.769C268.7 347.068 267.934 346.014 268.504 345.23L270.218 342.87C270.473 342.519 270.473 342.045 270.218 341.694L268.504 339.335C267.934 338.551 268.7 337.496 269.622 337.796L272.396 338.697C272.808 338.831 273.259 338.684 273.514 338.334L275.228 335.974C275.798 335.19 277.037 335.593 277.037 336.562L277.037 339.479C277.037 339.912 277.316 340.296 277.728 340.43L280.503 341.331Z" fill="#FAC809" fill-opacity="0.2"/>
<path d="M339.709 297.667C340.63 297.966 340.63 299.27 339.709 299.569L336.935 300.471C336.522 300.604 336.244 300.988 336.244 301.422L336.244 304.339C336.244 305.307 335.004 305.71 334.435 304.926L332.72 302.566C332.465 302.216 332.014 302.069 331.602 302.203L328.828 303.105C327.906 303.404 327.14 302.349 327.71 301.566L329.424 299.206C329.679 298.855 329.679 298.381 329.424 298.03L327.71 295.67C327.14 294.887 327.906 293.832 328.828 294.132L331.602 295.033C332.014 295.167 332.465 295.02 332.72 294.67L334.435 292.31C335.004 291.526 336.244 291.929 336.244 292.898L336.244 295.815C336.244 296.248 336.522 296.632 336.935 296.766L339.709 297.667Z" fill="#FAC809" fill-opacity="0.2"/>
<path d="M150.99 217C151.911 217.299 151.911 218.603 150.99 218.902L148.216 219.804C147.804 219.937 147.525 220.321 147.525 220.755L147.525 223.672C147.525 224.64 146.285 225.043 145.716 224.259L144.001 221.899C143.747 221.549 143.295 221.402 142.883 221.536L140.109 222.438C139.188 222.737 138.422 221.682 138.991 220.899L140.706 218.539C140.96 218.188 140.96 217.714 140.706 217.363L138.991 215.003C138.422 214.22 139.188 213.165 140.109 213.465L142.883 214.366C143.295 214.5 143.747 214.353 144.001 214.003L145.716 211.643C146.285 210.859 147.525 211.262 147.525 212.231L147.525 215.148C147.525 215.581 147.804 215.965 148.216 216.099L150.99 217Z" fill="#FAC809" fill-opacity="0.2"/>
<path d="M28.1384 217C29.0597 217.299 29.0597 218.603 28.1384 218.902L25.3642 219.804C24.9522 219.937 24.6732 220.321 24.6732 220.755L24.6732 223.672C24.6732 224.64 23.4336 225.043 22.8642 224.259L21.1497 221.899C20.895 221.549 20.4437 221.402 20.0316 221.536L17.2574 222.438C16.3361 222.737 15.57 221.682 16.1394 220.899L17.854 218.539C18.1086 218.188 18.1086 217.714 17.854 217.363L16.1394 215.003C15.57 214.22 16.3361 213.165 17.2575 213.465L20.0316 214.366C20.4437 214.5 20.895 214.353 21.1497 214.003L22.8642 211.643C23.4336 210.859 24.6732 211.262 24.6732 212.231L24.6732 215.148C24.6732 215.581 24.9522 215.965 25.3642 216.099L28.1384 217Z" fill="#FAC809" fill-opacity="0.2"/>
<path d="M84.3835 171.856C85.3048 172.155 85.3048 173.458 84.3835 173.758L81.6093 174.659C81.1973 174.793 80.9183 175.177 80.9183 175.61L80.9183 178.527C80.9183 179.496 79.6787 179.899 79.1093 179.115L77.3948 176.755C77.1401 176.404 76.6888 176.258 76.2767 176.392L73.5026 177.293C72.5813 177.592 71.8151 176.538 72.3845 175.754L74.0991 173.394C74.3537 173.044 74.3537 172.569 74.0991 172.219L72.3845 169.859C71.8151 169.075 72.5813 168.021 73.5026 168.32L76.2767 169.221C76.6888 169.355 77.1401 169.209 77.3948 168.858L79.1093 166.498C79.6787 165.715 80.9183 166.117 80.9183 167.086L80.9183 170.003C80.9183 170.436 81.1973 170.82 81.6093 170.954L84.3835 171.856Z" fill="#FAC809" fill-opacity="0.2"/>
<path d="M133.226 126.711C134.148 127.01 134.148 128.314 133.226 128.613L130.452 129.514C130.04 129.648 129.761 130.032 129.761 130.466L129.761 133.382C129.761 134.351 128.521 134.754 127.952 133.97L126.238 131.61C125.983 131.26 125.532 131.113 125.12 131.247L122.345 132.149C121.424 132.448 120.658 131.393 121.227 130.61L122.942 128.25C123.196 127.899 123.196 127.425 122.942 127.074L121.227 124.714C120.658 123.931 121.424 122.876 122.345 123.176L125.12 124.077C125.532 124.211 125.983 124.064 126.238 123.714L127.952 121.354C128.521 120.57 129.761 120.973 129.761 121.942L129.761 124.859C129.761 125.292 130.04 125.676 130.452 125.81L133.226 126.711Z" fill="#FAC809" fill-opacity="0.2"/>
<path d="M24.4382 90.4473C25.3595 90.7467 25.3595 92.0501 24.4382 92.3494L21.664 93.2508C21.252 93.3847 20.973 93.7686 20.973 94.2019L20.973 97.1188C20.973 98.0875 19.7334 98.4903 19.164 97.7066L17.4495 95.3467C17.1948 94.9962 16.7435 94.8496 16.3314 94.9835L13.5573 95.8848C12.6359 96.1842 11.8698 95.1297 12.4392 94.346L14.1538 91.9861C14.4084 91.6357 14.4084 91.1611 14.1538 90.8106L12.4392 88.4507C11.8698 87.667 12.6359 86.6125 13.5573 86.9119L16.3314 87.8133C16.7435 87.9471 17.1948 87.8005 17.4495 87.45L19.164 85.0901C19.7334 84.3064 20.973 84.7092 20.973 85.6779L20.973 88.5949C20.973 89.0281 21.252 89.412 21.664 89.5459L24.4382 90.4473Z" fill="#FAC809" fill-opacity="0.2"/>
<path d="M24.4382 474.447C25.3595 474.747 25.3595 476.05 24.4382 476.349L21.664 477.251C21.252 477.385 20.973 477.769 20.973 478.202L20.973 481.119C20.973 482.088 19.7334 482.49 19.164 481.707L17.4495 479.347C17.1948 478.996 16.7435 478.85 16.3314 478.983L13.5573 479.885C12.6359 480.184 11.8698 479.13 12.4392 478.346L14.1538 475.986C14.4084 475.636 14.4084 475.161 14.1538 474.811L12.4392 472.451C11.8698 471.667 12.6359 470.613 13.5573 470.912L16.3314 471.813C16.7435 471.947 17.1948 471.8 17.4495 471.45L19.164 469.09C19.7334 468.306 20.973 468.709 20.973 469.678L20.973 472.595C20.973 473.028 21.252 473.412 21.664 473.546L24.4382 474.447Z" fill="#FAC809" fill-opacity="0.2"/>
<path d="M86.6349 46.2326C87.4473 46.7602 87.11 48.0192 86.1426 48.0699L83.2296 48.2226C82.797 48.2452 82.4282 48.5439 82.316 48.9624L81.5611 51.7799C81.3104 52.7156 80.0087 52.7839 79.6616 51.8795L78.6162 49.1563C78.461 48.7518 78.063 48.4933 77.6303 48.516L74.7174 48.6687C73.75 48.7194 73.2829 47.5025 74.0357 46.8929L76.3026 45.0572C76.6393 44.7846 76.7621 44.3261 76.6069 43.9217L75.5615 41.1985C75.2144 40.2941 76.2273 39.4738 77.0397 40.0014L79.4861 41.5901C79.8494 41.8261 80.3234 41.8012 80.6601 41.5286L82.927 39.6929C83.6798 39.0833 84.7729 39.7932 84.5222 40.7289L83.7672 43.5464C83.6551 43.9649 83.8252 44.408 84.1885 44.6439L86.6349 46.2326Z" fill="#FAC809" fill-opacity="0.2"/>
<path d="M86.6349 430.232C87.4473 430.76 87.11 432.019 86.1426 432.069L83.2296 432.222C82.797 432.245 82.4282 432.543 82.316 432.962L81.5611 435.779C81.3104 436.715 80.0087 436.783 79.6616 435.879L78.6162 433.156C78.461 432.751 78.063 432.493 77.6303 432.516L74.7174 432.668C73.75 432.719 73.2829 431.502 74.0357 430.892L76.3026 429.057C76.6393 428.784 76.7621 428.326 76.6069 427.921L75.5615 425.198C75.2144 424.294 76.2273 423.473 77.0397 424.001L79.4861 425.59C79.8494 425.826 80.3234 425.801 80.6601 425.528L82.927 423.692C83.6798 423.083 84.7729 423.793 84.5222 424.728L83.7672 427.546C83.6551 427.964 83.8252 428.407 84.1885 428.643L86.6349 430.232Z" fill="#FAC809" fill-opacity="0.2"/>
<path d="M123.287 46.8392C123.693 47.103 123.524 47.7325 123.041 47.7579L121.529 47.8371C121.313 47.8484 121.129 47.9977 121.073 48.207L120.681 49.6686C120.556 50.1365 119.905 50.1706 119.731 49.7184L119.189 48.3057C119.111 48.1035 118.912 47.9742 118.696 47.9856L117.185 48.0647C116.701 48.0901 116.468 47.4817 116.844 47.1769L118.02 46.2246C118.188 46.0883 118.25 45.859 118.172 45.6568L117.63 44.2441C117.456 43.7919 117.963 43.3818 118.369 43.6456L119.638 44.4697C119.82 44.5877 120.057 44.5753 120.225 44.439L121.401 43.4867C121.777 43.1819 122.324 43.5368 122.199 44.0047L121.807 45.4663C121.751 45.6756 121.836 45.8971 122.018 46.0151L123.287 46.8392Z" fill="#FAC809" fill-opacity="0.2"/>
<path d="M123.287 430.839C123.693 431.103 123.524 431.733 123.041 431.758L121.529 431.837C121.313 431.848 121.129 431.998 121.073 432.207L120.681 433.669C120.556 434.136 119.905 434.171 119.731 433.718L119.189 432.306C119.111 432.103 118.912 431.974 118.696 431.986L117.185 432.065C116.701 432.09 116.468 431.482 116.844 431.177L118.02 430.225C118.188 430.088 118.25 429.859 118.172 429.657L117.63 428.244C117.456 427.792 117.963 427.382 118.369 427.646L119.638 428.47C119.82 428.588 120.057 428.575 120.225 428.439L121.401 427.487C121.777 427.182 122.324 427.537 122.199 428.005L121.807 429.466C121.751 429.676 121.836 429.897 122.018 430.015L123.287 430.839Z" fill="#FAC809" fill-opacity="0.2"/>
<path d="M98.8658 137.129C99.272 137.393 99.1034 138.022 98.6197 138.047L97.1085 138.127C96.8922 138.138 96.7078 138.287 96.6517 138.497L96.2601 139.958C96.1347 140.426 95.4839 140.46 95.3103 140.008L94.768 138.595C94.6904 138.393 94.4914 138.264 94.2751 138.275L92.764 138.354C92.2803 138.38 92.0467 137.771 92.4231 137.466L93.5991 136.514C93.7675 136.378 93.8289 136.149 93.7512 135.946L93.209 134.534C93.0354 134.081 93.5418 133.671 93.9481 133.935L95.2171 134.759C95.3988 134.877 95.6358 134.865 95.8041 134.729L96.9801 133.776C97.3565 133.471 97.9031 133.826 97.7777 134.294L97.3861 135.756C97.33 135.965 97.4151 136.187 97.5967 136.305L98.8658 137.129Z" fill="#FAC809" fill-opacity="0.2"/>
<path d="M38.1773 130.468C38.5836 130.731 38.4149 131.361 37.9312 131.386L36.4201 131.465C36.2037 131.477 36.0193 131.626 35.9633 131.835L35.5716 133.297C35.4462 133.765 34.7954 133.799 34.6219 133.347L34.0796 131.934C34.0019 131.732 33.8029 131.603 33.5866 131.614L32.0755 131.693C31.5918 131.719 31.3582 131.11 31.7347 130.805L32.9106 129.853C33.079 129.717 33.1404 129.487 33.0628 129.285L32.5205 127.873C32.3469 127.42 32.8534 127.01 33.2596 127.274L34.5287 128.098C34.7103 128.216 34.9473 128.204 35.1157 128.067L36.2916 127.115C36.6681 126.81 37.2146 127.165 37.0893 127.633L36.6976 129.095C36.6415 129.304 36.7266 129.526 36.9083 129.643L38.1773 130.468Z" fill="#FAC809" fill-opacity="0.2"/>
<path d="M125.506 173.392C125.913 173.656 125.744 174.285 125.26 174.311L123.749 174.39C123.533 174.401 123.348 174.55 123.292 174.76L122.901 176.221C122.775 176.689 122.125 176.723 121.951 176.271L121.409 174.858C121.331 174.656 121.132 174.527 120.916 174.538L119.405 174.617C118.921 174.643 118.687 174.034 119.064 173.73L120.24 172.777C120.408 172.641 120.469 172.412 120.392 172.21L119.85 170.797C119.676 170.345 120.182 169.935 120.589 170.198L121.858 171.022C122.039 171.14 122.276 171.128 122.445 170.992L123.621 170.039C123.997 169.735 124.544 170.09 124.418 170.557L124.027 172.019C123.971 172.228 124.056 172.45 124.237 172.568L125.506 173.392Z" fill="#FAC809" fill-opacity="0.2"/>
<path d="M228.377 140.829C228.783 141.093 228.614 141.722 228.13 141.748L226.619 141.827C226.403 141.838 226.219 141.987 226.162 142.197L225.771 143.658C225.645 144.126 224.995 144.16 224.821 143.708L224.279 142.295C224.201 142.093 224.002 141.964 223.786 141.975L222.275 142.054C221.791 142.08 221.557 141.471 221.934 141.167L223.11 140.214C223.278 140.078 223.34 139.849 223.262 139.647L222.72 138.234C222.546 137.782 223.053 137.372 223.459 137.635L224.728 138.459C224.91 138.577 225.147 138.565 225.315 138.429L226.491 137.476C226.867 137.172 227.414 137.527 227.288 137.994L226.897 139.456C226.841 139.665 226.926 139.887 227.107 140.005L228.377 140.829Z" fill="#FAC809" fill-opacity="0.2"/>
<path d="M189.893 77.1825C190.299 77.4463 190.131 78.0758 189.647 78.1011L188.136 78.1803C187.92 78.1917 187.735 78.341 187.679 78.5502L187.287 80.0119C187.162 80.4797 186.511 80.5138 186.338 80.0616L185.795 78.6489C185.718 78.4467 185.519 78.3175 185.302 78.3288L183.791 78.408C183.308 78.4334 183.074 77.8249 183.45 77.5201L184.626 76.5678C184.795 76.4315 184.856 76.2023 184.779 76.0001L184.236 74.5874C184.063 74.1352 184.569 73.7251 184.975 73.9889L186.244 74.813C186.426 74.931 186.663 74.9186 186.831 74.7822L188.007 73.83C188.384 73.5251 188.93 73.8801 188.805 74.3479L188.413 75.8096C188.357 76.0188 188.442 76.2403 188.624 76.3583L189.893 77.1825Z" fill="#FAC809" fill-opacity="0.2"/>
<path d="M189.893 461.183C190.299 461.447 190.131 462.076 189.647 462.102L188.136 462.181C187.92 462.192 187.735 462.341 187.679 462.551L187.287 464.012C187.162 464.48 186.511 464.514 186.338 464.062L185.795 462.649C185.718 462.447 185.519 462.318 185.302 462.329L183.791 462.408C183.308 462.434 183.074 461.825 183.45 461.521L184.626 460.568C184.795 460.432 184.856 460.203 184.779 460.001L184.236 458.588C184.063 458.136 184.569 457.726 184.975 457.989L186.244 458.813C186.426 458.931 186.663 458.919 186.831 458.783L188.007 457.83C188.384 457.526 188.93 457.881 188.805 458.348L188.413 459.81C188.357 460.019 188.442 460.241 188.624 460.359L189.893 461.183Z" fill="#FAC809" fill-opacity="0.2"/>
<path d="M167.692 128.988C168.098 129.252 167.93 129.881 167.446 129.907L165.935 129.986C165.718 129.997 165.534 130.147 165.478 130.356L165.086 131.818C164.961 132.285 164.31 132.32 164.137 131.867L163.594 130.455C163.517 130.252 163.318 130.123 163.101 130.134L161.59 130.214C161.106 130.239 160.873 129.631 161.249 129.326L162.425 128.373C162.594 128.237 162.655 128.008 162.577 127.806L162.035 126.393C161.862 125.941 162.368 125.531 162.774 125.795L164.043 126.619C164.225 126.737 164.462 126.724 164.63 126.588L165.806 125.636C166.183 125.331 166.729 125.686 166.604 126.154L166.212 127.615C166.156 127.824 166.241 128.046 166.423 128.164L167.692 128.988Z" fill="#FAC809" fill-opacity="0.2"/>
<path d="M249.839 47.5804C250.246 47.8442 250.077 48.4737 249.593 48.4991L248.082 48.5783C247.866 48.5896 247.681 48.7389 247.625 48.9482L247.234 50.4098C247.108 50.8777 246.458 50.9118 246.284 50.4596L245.742 49.0469C245.664 48.8447 245.465 48.7154 245.249 48.7268L243.738 48.806C243.254 48.8313 243.02 48.2229 243.397 47.9181L244.573 46.9658C244.741 46.8295 244.803 46.6002 244.725 46.398L244.183 44.9853C244.009 44.5331 244.515 44.123 244.922 44.3868L246.191 45.211C246.372 45.3289 246.609 45.3165 246.778 45.1802L247.954 44.2279C248.33 43.9231 248.877 44.278 248.751 44.7459L248.36 46.2075C248.304 46.4168 248.389 46.6383 248.57 46.7563L249.839 47.5804Z" fill="#FAC809" fill-opacity="0.2"/>
<path d="M249.839 431.58C250.246 431.844 250.077 432.474 249.593 432.499L248.082 432.578C247.866 432.59 247.681 432.739 247.625 432.948L247.234 434.41C247.108 434.878 246.458 434.912 246.284 434.46L245.742 433.047C245.664 432.845 245.465 432.715 245.249 432.727L243.738 432.806C243.254 432.831 243.02 432.223 243.397 431.918L244.573 430.966C244.741 430.829 244.803 430.6 244.725 430.398L244.183 428.985C244.009 428.533 244.515 428.123 244.922 428.387L246.191 429.211C246.372 429.329 246.609 429.317 246.778 429.18L247.954 428.228C248.33 427.923 248.877 428.278 248.751 428.746L248.36 430.208C248.304 430.417 248.389 430.638 248.57 430.756L249.839 431.58Z" fill="#FAC809" fill-opacity="0.2"/>
<path d="M314.225 77.1825C314.631 77.4463 314.463 78.0758 313.979 78.1011L312.468 78.1803C312.252 78.1917 312.067 78.341 312.011 78.5502L311.619 80.0119C311.494 80.4797 310.843 80.5138 310.67 80.0616L310.127 78.6489C310.05 78.4467 309.851 78.3175 309.634 78.3288L308.123 78.408C307.64 78.4334 307.406 77.8249 307.783 77.5201L308.958 76.5678C309.127 76.4315 309.188 76.2023 309.111 76.0001L308.568 74.5874C308.395 74.1352 308.901 73.7251 309.307 73.9889L310.577 74.813C310.758 74.931 310.995 74.9186 311.164 74.7822L312.339 73.83C312.716 73.5251 313.262 73.8801 313.137 74.3479L312.745 75.8096C312.689 76.0188 312.774 76.2403 312.956 76.3583L314.225 77.1825Z" fill="#FAC809" fill-opacity="0.2"/>
<path d="M314.225 461.183C314.631 461.447 314.463 462.076 313.979 462.102L312.468 462.181C312.252 462.192 312.067 462.341 312.011 462.551L311.619 464.012C311.494 464.48 310.843 464.514 310.67 464.062L310.127 462.649C310.05 462.447 309.851 462.318 309.634 462.329L308.123 462.408C307.64 462.434 307.406 461.825 307.783 461.521L308.958 460.568C309.127 460.432 309.188 460.203 309.111 460.001L308.568 458.588C308.395 458.136 308.901 457.726 309.307 457.989L310.577 458.813C310.758 458.931 310.995 458.919 311.164 458.783L312.339 457.83C312.716 457.526 313.262 457.881 313.137 458.348L312.745 459.81C312.689 460.019 312.774 460.241 312.956 460.359L314.225 461.183Z" fill="#FAC809" fill-opacity="0.2"/>
<path d="M252.799 174.132C253.206 174.396 253.037 175.025 252.553 175.051L251.042 175.13C250.826 175.141 250.641 175.291 250.585 175.5L250.194 176.962C250.068 177.429 249.418 177.464 249.244 177.011L248.702 175.599C248.624 175.396 248.425 175.267 248.209 175.279L246.698 175.358C246.214 175.383 245.98 174.775 246.357 174.47L247.533 173.518C247.701 173.381 247.762 173.152 247.685 172.95L247.143 171.537C246.969 171.085 247.475 170.675 247.882 170.939L249.151 171.763C249.332 171.881 249.569 171.868 249.738 171.732L250.914 170.78C251.29 170.475 251.837 170.83 251.711 171.298L251.32 172.759C251.264 172.969 251.349 173.19 251.53 173.308L252.799 174.132Z" fill="#FAC809" fill-opacity="0.2"/>
<path d="M314.225 200.035C314.631 200.298 314.463 200.928 313.979 200.953L312.468 201.032C312.252 201.044 312.067 201.193 312.011 201.402L311.619 202.864C311.494 203.332 310.843 203.366 310.67 202.914L310.127 201.501C310.05 201.299 309.851 201.17 309.634 201.181L308.123 201.26C307.64 201.285 307.406 200.677 307.783 200.372L308.958 199.42C309.127 199.284 309.188 199.054 309.111 198.852L308.568 197.439C308.395 196.987 308.901 196.577 309.307 196.841L310.577 197.665C310.758 197.783 310.995 197.771 311.164 197.634L312.339 196.682C312.716 196.377 313.262 196.732 313.137 197.2L312.745 198.662C312.689 198.871 312.774 199.092 312.956 199.21L314.225 200.035Z" fill="#FAC809" fill-opacity="0.2"/>
<path d="M292.764 254.06C293.17 254.324 293.002 254.953 292.518 254.979L291.007 255.058C290.791 255.069 290.606 255.218 290.55 255.428L290.159 256.889C290.033 257.357 289.382 257.391 289.209 256.939L288.666 255.526C288.589 255.324 288.39 255.195 288.174 255.206L286.662 255.285C286.179 255.311 285.945 254.702 286.322 254.398L287.498 253.445C287.666 253.309 287.727 253.08 287.65 252.878L287.107 251.465C286.934 251.013 287.44 250.602 287.847 250.866L289.116 251.69C289.297 251.808 289.534 251.796 289.703 251.66L290.879 250.707C291.255 250.403 291.802 250.758 291.676 251.225L291.285 252.687C291.228 252.896 291.314 253.118 291.495 253.236L292.764 254.06Z" fill="#FAC809" fill-opacity="0.2"/>
<path d="M354.19 260.72C354.596 260.984 354.428 261.613 353.944 261.639L352.433 261.718C352.216 261.729 352.032 261.879 351.976 262.088L351.584 263.549C351.459 264.017 350.808 264.051 350.635 263.599L350.092 262.187C350.015 261.984 349.816 261.855 349.599 261.866L348.088 261.946C347.604 261.971 347.371 261.363 347.747 261.058L348.923 260.105C349.092 259.969 349.153 259.74 349.075 259.538L348.533 258.125C348.36 257.673 348.866 257.263 349.272 257.526L350.541 258.351C350.723 258.469 350.96 258.456 351.128 258.32L352.304 257.368C352.681 257.063 353.227 257.418 353.102 257.886L352.71 259.347C352.654 259.556 352.739 259.778 352.921 259.896L354.19 260.72Z" fill="#FAC809" fill-opacity="0.2"/>
<path d="M376.392 299.204C376.798 299.468 376.63 300.098 376.146 300.123L374.635 300.202C374.419 300.214 374.234 300.363 374.178 300.572L373.786 302.034C373.661 302.502 373.01 302.536 372.837 302.084L372.294 300.671C372.217 300.469 372.018 300.339 371.801 300.351L370.29 300.43C369.807 300.455 369.573 299.847 369.949 299.542L371.125 298.59C371.294 298.453 371.355 298.224 371.278 298.022L370.735 296.609C370.562 296.157 371.068 295.747 371.474 296.011L372.744 296.835C372.925 296.953 373.162 296.941 373.33 296.804L374.506 295.852C374.883 295.547 375.429 295.902 375.304 296.37L374.912 297.832C374.856 298.041 374.941 298.262 375.123 298.38L376.392 299.204Z" fill="#FAC809" fill-opacity="0.2"/>
<path d="M378.612 174.132C379.018 174.396 378.849 175.025 378.366 175.051L376.855 175.13C376.638 175.141 376.454 175.291 376.398 175.5L376.006 176.962C375.881 177.429 375.23 177.464 375.056 177.011L374.514 175.599C374.437 175.396 374.238 175.267 374.021 175.279L372.51 175.358C372.026 175.383 371.793 174.775 372.169 174.47L373.345 173.518C373.514 173.381 373.575 173.152 373.497 172.95L372.955 171.537C372.781 171.085 373.288 170.675 373.694 170.939L374.963 171.763C375.145 171.881 375.382 171.868 375.55 171.732L376.726 170.78C377.103 170.475 377.649 170.83 377.524 171.298L377.132 172.759C377.076 172.969 377.161 173.19 377.343 173.308L378.612 174.132Z" fill="#FAC809" fill-opacity="0.2"/>
<path d="M354.19 138.609C354.596 138.873 354.428 139.503 353.944 139.528L352.433 139.607C352.216 139.618 352.032 139.768 351.976 139.977L351.584 141.439C351.459 141.906 350.808 141.941 350.635 141.488L350.092 140.076C350.015 139.873 349.816 139.744 349.599 139.756L348.088 139.835C347.604 139.86 347.371 139.252 347.747 138.947L348.923 137.995C349.092 137.858 349.153 137.629 349.075 137.427L348.533 136.014C348.36 135.562 348.866 135.152 349.272 135.416L350.541 136.24C350.723 136.358 350.96 136.345 351.128 136.209L352.304 135.257C352.681 134.952 353.227 135.307 353.102 135.775L352.71 137.236C352.654 137.446 352.739 137.667 352.921 137.785L354.19 138.609Z" fill="#FAC809" fill-opacity="0.2"/>
<path d="M378.612 43.141C379.018 43.4048 378.849 44.0343 378.366 44.0596L376.855 44.1388C376.638 44.1502 376.454 44.2995 376.398 44.5087L376.006 45.9704C375.881 46.4382 375.23 46.4723 375.056 46.0201L374.514 44.6074C374.437 44.4052 374.238 44.276 374.021 44.2873L372.51 44.3665C372.026 44.3919 371.793 43.7834 372.169 43.4786L373.345 42.5263C373.514 42.39 373.575 42.1608 373.497 41.9586L372.955 40.5459C372.781 40.0937 373.288 39.6835 373.694 39.9474L374.963 40.7715C375.145 40.8895 375.382 40.8771 375.55 40.7407L376.726 39.7884C377.103 39.4836 377.649 39.8386 377.524 40.3064L377.132 41.7681C377.076 41.9773 377.161 42.1988 377.343 42.3168L378.612 43.141Z" fill="#FAC809" fill-opacity="0.2"/>
<path d="M378.612 427.141C379.018 427.405 378.849 428.034 378.366 428.06L376.855 428.139C376.638 428.15 376.454 428.299 376.398 428.509L376.006 429.97C375.881 430.438 375.23 430.472 375.056 430.02L374.514 428.607C374.437 428.405 374.238 428.276 374.021 428.287L372.51 428.367C372.026 428.392 371.793 427.783 372.169 427.479L373.345 426.526C373.514 426.39 373.575 426.161 373.497 425.959L372.955 424.546C372.781 424.094 373.288 423.684 373.694 423.947L374.963 424.772C375.145 424.889 375.382 424.877 375.55 424.741L376.726 423.788C377.103 423.484 377.649 423.839 377.524 424.306L377.132 425.768C377.076 425.977 377.161 426.199 377.343 426.317L378.612 427.141Z" fill="#FAC809" fill-opacity="0.2"/>
<path d="M351.968 390.234C352.375 390.498 352.206 391.127 351.722 391.152L350.211 391.232C349.995 391.243 349.81 391.392 349.754 391.601L349.363 393.063C349.237 393.531 348.586 393.565 348.413 393.113L347.871 391.7C347.793 391.498 347.594 391.369 347.378 391.38L345.866 391.459C345.383 391.485 345.149 390.876 345.526 390.571L346.702 389.619C346.87 389.483 346.931 389.254 346.854 389.051L346.311 387.639C346.138 387.186 346.644 386.776 347.051 387.04L348.32 387.864C348.501 387.982 348.738 387.97 348.907 387.834L350.083 386.881C350.459 386.576 351.006 386.931 350.88 387.399L350.489 388.861C350.433 389.07 350.518 389.292 350.699 389.41L351.968 390.234Z" fill="#FAC809" fill-opacity="0.2"/>
<path d="M292.023 381.353C292.429 381.617 292.261 382.246 291.777 382.272L290.266 382.351C290.049 382.362 289.865 382.511 289.809 382.721L289.417 384.182C289.292 384.65 288.641 384.684 288.468 384.232L287.925 382.819C287.848 382.617 287.649 382.488 287.432 382.499L285.921 382.578C285.437 382.604 285.204 381.995 285.58 381.691L286.756 380.738C286.925 380.602 286.986 380.373 286.908 380.17L286.366 378.758C286.193 378.306 286.699 377.895 287.105 378.159L288.374 378.983C288.556 379.101 288.793 379.089 288.961 378.953L290.137 378C290.514 377.696 291.06 378.05 290.935 378.518L290.543 379.98C290.487 380.189 290.572 380.411 290.754 380.529L292.023 381.353Z" fill="#FAC809" fill-opacity="0.2"/>
<path d="M224.678 263.681C225.085 263.945 224.916 264.574 224.432 264.6L222.921 264.679C222.705 264.69 222.52 264.84 222.464 265.049L222.073 266.51C221.947 266.978 221.296 267.012 221.123 266.56L220.581 265.147C220.503 264.945 220.304 264.816 220.088 264.827L218.576 264.907C218.093 264.932 217.859 264.323 218.236 264.019L219.412 263.066C219.58 262.93 219.641 262.701 219.564 262.499L219.021 261.086C218.848 260.634 219.354 260.224 219.761 260.487L221.03 261.312C221.211 261.43 221.448 261.417 221.617 261.281L222.793 260.328C223.169 260.024 223.716 260.379 223.59 260.846L223.199 262.308C223.143 262.517 223.228 262.739 223.409 262.857L224.678 263.681Z" fill="#FAC809" fill-opacity="0.2"/>
<path d="M165.471 257.019C165.878 257.283 165.709 257.912 165.225 257.938L163.714 258.017C163.498 258.028 163.313 258.177 163.257 258.387L162.866 259.848C162.74 260.316 162.089 260.35 161.916 259.898L161.374 258.485C161.296 258.283 161.097 258.154 160.881 258.165L159.369 258.244C158.886 258.27 158.652 257.661 159.029 257.357L160.205 256.404C160.373 256.268 160.434 256.039 160.357 255.836L159.814 254.424C159.641 253.972 160.147 253.561 160.554 253.825L161.823 254.649C162.004 254.767 162.241 254.755 162.41 254.619L163.586 253.666C163.962 253.362 164.509 253.717 164.383 254.184L163.992 255.646C163.935 255.855 164.021 256.077 164.202 256.195L165.471 257.019Z" fill="#FAC809" fill-opacity="0.2"/>
<path d="M188.414 205.214C188.82 205.478 188.651 206.108 188.168 206.133L186.656 206.212C186.44 206.223 186.256 206.373 186.2 206.582L185.808 208.044C185.683 208.511 185.032 208.546 184.858 208.093L184.316 206.681C184.238 206.478 184.039 206.349 183.823 206.361L182.312 206.44C181.828 206.465 181.595 205.857 181.971 205.552L183.147 204.6C183.315 204.463 183.377 204.234 183.299 204.032L182.757 202.619C182.583 202.167 183.09 201.757 183.496 202.021L184.765 202.845C184.947 202.963 185.184 202.95 185.352 202.814L186.528 201.862C186.904 201.557 187.451 201.912 187.326 202.38L186.934 203.841C186.878 204.051 186.963 204.272 187.145 204.39L188.414 205.214Z" fill="#FAC809" fill-opacity="0.2"/>
<path d="M186.193 330.286C186.599 330.55 186.431 331.18 185.947 331.205L184.436 331.284C184.219 331.296 184.035 331.445 183.979 331.654L183.587 333.116C183.462 333.584 182.811 333.618 182.637 333.166L182.095 331.753C182.018 331.551 181.819 331.421 181.602 331.433L180.091 331.512C179.607 331.537 179.374 330.929 179.75 330.624L180.926 329.672C181.095 329.536 181.156 329.306 181.078 329.104L180.536 327.691C180.363 327.239 180.869 326.829 181.275 327.093L182.544 327.917C182.726 328.035 182.963 328.023 183.131 327.886L184.307 326.934C184.684 326.629 185.23 326.984 185.105 327.452L184.713 328.914C184.657 329.123 184.742 329.344 184.924 329.462L186.193 330.286Z" fill="#FAC809" fill-opacity="0.2"/>
<path d="M316.446 330.286C316.852 330.55 316.683 331.18 316.2 331.205L314.689 331.284C314.472 331.296 314.288 331.445 314.232 331.654L313.84 333.116C313.715 333.584 313.064 333.618 312.89 333.166L312.348 331.753C312.27 331.551 312.071 331.421 311.855 331.433L310.344 331.512C309.86 331.537 309.627 330.929 310.003 330.624L311.179 329.672C311.348 329.536 311.409 329.306 311.331 329.104L310.789 327.691C310.615 327.239 311.122 326.829 311.528 327.093L312.797 327.917C312.979 328.035 313.216 328.023 313.384 327.886L314.56 326.934C314.937 326.629 315.483 326.984 315.358 327.452L314.966 328.914C314.91 329.123 314.995 329.344 315.177 329.462L316.446 330.286Z" fill="#FAC809" fill-opacity="0.2"/>
<path d="M252.06 300.684C252.466 300.948 252.298 301.577 251.814 301.603L250.303 301.682C250.087 301.693 249.902 301.842 249.846 302.052L249.454 303.513C249.329 303.981 248.678 304.015 248.505 303.563L247.962 302.15C247.885 301.948 247.686 301.819 247.469 301.83L245.958 301.909C245.475 301.935 245.241 301.326 245.617 301.022L246.793 300.069C246.962 299.933 247.023 299.704 246.946 299.502L246.403 298.089C246.23 297.637 246.736 297.227 247.142 297.49L248.411 298.314C248.593 298.432 248.83 298.42 248.998 298.284L250.174 297.331C250.551 297.027 251.097 297.382 250.972 297.849L250.58 299.311C250.524 299.52 250.609 299.742 250.791 299.86L252.06 300.684Z" fill="#FAC809" fill-opacity="0.2"/>
<path d="M98.8658 390.234C99.272 390.498 99.1034 391.127 98.6197 391.152L97.1085 391.232C96.8922 391.243 96.7078 391.392 96.6517 391.601L96.2601 393.063C96.1347 393.531 95.4839 393.565 95.3103 393.113L94.768 391.7C94.6904 391.498 94.4914 391.369 94.2751 391.38L92.764 391.459C92.2803 391.485 92.0467 390.876 92.4231 390.571L93.5991 389.619C93.7675 389.483 93.8289 389.254 93.7512 389.051L93.209 387.639C93.0354 387.186 93.5418 386.776 93.9481 387.04L95.2171 387.864C95.3988 387.982 95.6358 387.97 95.8041 387.834L96.9801 386.881C97.3565 386.576 97.9031 386.931 97.7777 387.399L97.3861 388.861C97.33 389.07 97.4151 389.292 97.5967 389.41L98.8658 390.234Z" fill="#FAC809" fill-opacity="0.2"/>
<path d="M165.471 381.353C165.878 381.617 165.709 382.246 165.225 382.272L163.714 382.351C163.498 382.362 163.313 382.511 163.257 382.721L162.866 384.182C162.74 384.65 162.089 384.684 161.916 384.232L161.374 382.819C161.296 382.617 161.097 382.488 160.881 382.499L159.369 382.578C158.886 382.604 158.652 381.995 159.029 381.691L160.205 380.738C160.373 380.602 160.434 380.373 160.357 380.17L159.814 378.758C159.641 378.306 160.147 377.895 160.554 378.159L161.823 378.983C162.004 379.101 162.241 379.089 162.41 378.953L163.586 378C163.962 377.696 164.509 378.05 164.383 378.518L163.992 379.98C163.935 380.189 164.021 380.411 164.202 380.529L165.471 381.353Z" fill="#FAC809" fill-opacity="0.2"/>
<path d="M61.8619 330.286C62.2681 330.55 62.0995 331.18 61.6158 331.205L60.1046 331.284C59.8883 331.296 59.7039 331.445 59.6478 331.654L59.2562 333.116C59.1308 333.584 58.48 333.618 58.3064 333.166L57.7641 331.753C57.6865 331.551 57.4875 331.421 57.2712 331.433L55.7601 331.512C55.2764 331.537 55.0428 330.929 55.4192 330.624L56.5952 329.672C56.7635 329.536 56.825 329.306 56.7473 329.104L56.2051 327.691C56.0315 327.239 56.5379 326.829 56.9442 327.093L58.2132 327.917C58.3949 328.035 58.6319 328.023 58.8002 327.886L59.9762 326.934C60.3526 326.629 60.8992 326.984 60.7738 327.452L60.3822 328.914C60.3261 329.123 60.4112 329.344 60.5928 329.462L61.8619 330.286Z" fill="#FAC809" fill-opacity="0.2"/>
<path d="M98.8658 264.421C99.272 264.685 99.1034 265.315 98.6197 265.34L97.1085 265.419C96.8922 265.43 96.7078 265.58 96.6517 265.789L96.2601 267.251C96.1347 267.719 95.4839 267.753 95.3103 267.3L94.768 265.888C94.6904 265.685 94.4914 265.556 94.2751 265.568L92.764 265.647C92.2803 265.672 92.0467 265.064 92.4231 264.759L93.5991 263.807C93.7675 263.67 93.8289 263.441 93.7512 263.239L93.209 261.826C93.0354 261.374 93.5418 260.964 93.9481 261.228L95.2171 262.052C95.3988 262.17 95.6358 262.157 95.8041 262.021L96.9801 261.069C97.3565 260.764 97.9031 261.119 97.7777 261.587L97.3861 263.048C97.33 263.258 97.4151 263.479 97.5967 263.597L98.8658 264.421Z" fill="#FAC809" fill-opacity="0.2"/>
<path d="M125.506 299.204C125.913 299.468 125.744 300.098 125.26 300.123L123.749 300.202C123.533 300.214 123.348 300.363 123.292 300.572L122.901 302.034C122.775 302.502 122.125 302.536 121.951 302.084L121.409 300.671C121.331 300.469 121.132 300.339 120.916 300.351L119.405 300.43C118.921 300.455 118.687 299.847 119.064 299.542L120.24 298.59C120.408 298.453 120.469 298.224 120.392 298.022L119.85 296.609C119.676 296.157 120.182 295.747 120.589 296.011L121.858 296.835C122.039 296.953 122.276 296.941 122.445 296.804L123.621 295.852C123.997 295.547 124.544 295.902 124.418 296.37L124.027 297.832C123.971 298.041 124.056 298.262 124.237 298.38L125.506 299.204Z" fill="#FAC809" fill-opacity="0.2"/>
<path d="M40.399 381.353C40.8052 381.617 40.6366 382.246 40.1529 382.272L38.6417 382.351C38.4254 382.362 38.241 382.511 38.1849 382.721L37.7933 384.182C37.6679 384.65 37.0171 384.684 36.8435 384.232L36.3013 382.819C36.2236 382.617 36.0246 382.488 35.8083 382.499L34.2972 382.578C33.8135 382.604 33.5799 381.995 33.9563 381.691L35.1323 380.738C35.3007 380.602 35.3621 380.373 35.2844 380.17L34.7422 378.758C34.5686 378.306 35.075 377.895 35.4813 378.159L36.7504 378.983C36.932 379.101 37.169 379.089 37.3373 378.953L38.5133 378C38.8897 377.696 39.4363 378.05 39.3109 378.518L38.9193 379.98C38.8632 380.189 38.9483 380.411 39.1299 380.529L40.399 381.353Z" fill="#FAC809" fill-opacity="0.2"/>
</g>
<defs>
<clipPath id="clip0_364_1702">
<rect width="389.999" height="500.913" fill="white" transform="translate(0.000976562)"/>
</clipPath>
</defs>
</svg>
